<svg width="60" height="20" viewBox="0 0 60 20" fill="none" xmlns="http://www.w3.org/2000/svg">
<path d="M1.45368 13.702C1.17768 13.57 1.00968 13.36 0.94968 13.072C0.90168 12.784 0.96768 12.442 1.14768 12.046C1.19568 11.938 1.23168 11.854 1.25568 11.794C1.27968 11.734 1.27968 11.674 1.25568 11.614C1.24368 11.542 1.20768 11.47 1.14768 11.398C1.09968 11.314 1.02168 11.2 0.91368 11.056C0.75768 10.84 0.63768 10.672 0.55368 10.552C0.46968 10.42 0.40968 10.282 0.37368 10.138C0.33768 9.982 0.31368 9.784 0.30168 9.544C0.30168 9.304 0.30168 8.956 0.30168 8.5C0.28968 7.972 0.27168 7.552 0.24768 7.24C0.22368 6.916 0.19968 6.688 0.17568 6.556C0.15168 6.424 0.13368 6.298 0.12168 6.178C0.12168 6.046 0.12768 5.914 0.13968 5.782C0.16368 5.65 0.19968 5.47 0.24768 5.242C0.29568 5.014 0.36168 4.744 0.44568 4.432C0.48168 4.264 0.50568 4.12 0.51768 4C0.54168 3.88 0.55968 3.778 0.57168 3.694C0.57168 3.61 0.56568 3.46 0.55368 3.244C0.54168 3.016 0.52368 2.728 0.49968 2.38C0.47568 2.08 0.51768 1.822 0.62568 1.606C0.73368 1.378 0.88968 1.228 1.09368 1.156C1.42968 1.024 1.72368 1.096 1.97568 1.372C2.23968 1.648 2.37768 2.026 2.38968 2.506C2.38968 2.662 2.38968 2.806 2.38968 2.938C2.40168 3.07 2.41368 3.196 2.42568 3.316C2.46168 3.568 2.35968 4.156 2.11968 5.08C1.98768 5.68 1.96368 6.166 2.04768 6.538C2.09568 6.718 2.11968 7.27 2.11968 8.194C2.11968 8.986 2.13768 9.454 2.17368 9.598C2.18568 9.73 2.31768 9.946 2.56968 10.246C2.73768 10.462 2.86368 10.666 2.94768 10.858C3.04368 11.038 3.09768 11.224 3.10968 11.416C3.12168 11.596 3.09768 11.8 3.03768 12.028C2.97768 12.256 2.87568 12.526 2.73168 12.838C2.53968 13.27 2.34768 13.552 2.15568 13.684C1.96368 13.828 1.72968 13.834 1.45368 13.702ZM8.81737 13.792C8.18137 13.804 7.65337 13.78 7.23337 13.72C6.82537 13.672 6.49537 13.576 6.24337 13.432C5.99137 13.3 5.81737 13.114 5.72137 12.874C5.62537 12.622 5.57737 12.316 5.57737 11.956C5.57737 11.524 5.54737 11.308 5.48737 11.308C5.46337 11.308 5.41537 11.326 5.34337 11.362C5.18737 11.446 5.00137 11.452 4.78537 11.38C4.56937 11.296 4.41337 11.164 4.31737 10.984C4.17337 10.72 4.15537 10.438 4.26337 10.138C4.37137 9.826 4.57537 9.592 4.87537 9.436C5.03137 9.352 5.05537 9.088 4.94737 8.644C4.91137 8.464 4.94737 8.236 5.05537 7.96C5.16337 7.684 5.31337 7.414 5.50537 7.15C5.70937 6.886 5.93137 6.652 6.17137 6.448C6.42337 6.244 6.65737 6.112 6.87337 6.052C7.49737 5.896 8.29537 6.034 9.26737 6.466C9.56737 6.61 9.80137 6.7 9.96937 6.736C10.1134 6.772 10.2754 6.838 10.4554 6.934C10.6474 7.03 10.8274 7.15 10.9954 7.294C11.1754 7.426 11.3314 7.57 11.4634 7.726C11.6074 7.87 11.7094 8.002 11.7694 8.122C11.9854 8.602 11.7934 9.196 11.1934 9.904C11.0614 10.036 10.9714 10.162 10.9234 10.282C10.7674 10.63 10.5394 10.84 10.2394 10.912C9.95137 10.984 9.60937 10.918 9.21337 10.714C9.10537 10.654 9.01537 10.612 8.94337 10.588C8.88337 10.552 8.82337 10.528 8.76337 10.516C8.70337 10.492 8.62537 10.48 8.52937 10.48C8.44537 10.48 8.32537 10.48 8.16937 10.48C7.92937 10.48 7.74937 10.486 7.62937 10.498C7.50937 10.498 7.42537 10.522 7.37737 10.57C7.32937 10.606 7.30537 10.678 7.30537 10.786C7.30537 10.894 7.30537 11.044 7.30537 11.236V11.65C7.30537 11.782 7.33537 11.896 7.39537 11.992C7.45537 12.088 7.53337 12.136 7.62937 12.136C7.78537 12.136 7.88737 12.142 7.93537 12.154C7.99537 12.154 8.04337 12.16 8.07937 12.172C8.11537 12.172 8.16337 12.172 8.22337 12.172C8.29537 12.172 8.42137 12.166 8.60137 12.154H8.85337C9.58537 12.142 10.0534 12.178 10.2574 12.262C10.4494 12.346 10.5454 12.568 10.5454 12.928C10.5454 13.276 10.4374 13.504 10.2214 13.612C10.0174 13.708 9.54937 13.768 8.81737 13.792ZM9.41137 8.95C9.65137 9.046 9.81337 8.98 9.89737 8.752C9.93337 8.68 9.90937 8.602 9.82537 8.518C9.75337 8.422 9.65737 8.362 9.53737 8.338C9.35737 8.302 9.03337 8.182 8.56537 7.978C8.43337 7.918 8.31937 7.87 8.22337 7.834C8.12737 7.786 8.03737 7.75 7.95337 7.726C7.71337 7.654 7.52137 7.648 7.37737 7.708C7.23337 7.768 7.07137 7.924 6.89137 8.176C6.47137 8.716 6.63337 8.95 7.37737 8.878C7.55737 8.866 7.74937 8.854 7.95337 8.842C8.16937 8.83 8.37337 8.83 8.56537 8.842C8.75737 8.842 8.92537 8.854 9.06937 8.878C9.22537 8.89 9.33937 8.914 9.41137 8.95ZM16.8513 13.684C16.2993 13.972 15.7353 13.726 15.1593 12.946C15.0633 12.814 14.9673 12.7 14.8713 12.604C14.7873 12.496 14.6973 12.394 14.6013 12.298C14.4213 12.118 14.2713 11.92 14.1513 11.704C14.1033 11.608 14.0553 11.524 14.0073 11.452C13.9593 11.368 13.9053 11.29 13.8453 11.218C13.6773 11.002 13.5513 10.804 13.4673 10.624C13.3953 10.432 13.3173 10.144 13.2333 9.76C13.1973 9.592 13.1613 9.448 13.1253 9.328C13.0893 9.208 13.0593 9.112 13.0353 9.04C12.9993 8.956 12.9753 8.818 12.9633 8.626C12.9513 8.422 12.9453 8.218 12.9453 8.014C12.9573 7.798 12.9693 7.594 12.9813 7.402C13.0053 7.21 13.0353 7.066 13.0713 6.97C13.2033 6.682 13.3653 6.496 13.5573 6.412C13.7493 6.328 13.9353 6.316 14.1153 6.376C14.3073 6.424 14.4633 6.538 14.5833 6.718C14.6553 6.826 14.7033 6.94 14.7273 7.06L14.6913 7.834C14.6673 8.194 14.6913 8.5 14.7633 8.752C14.8113 8.884 14.8473 9.01 14.8713 9.13C14.8953 9.25 14.9193 9.358 14.9433 9.454C14.9913 9.742 15.1113 10 15.3033 10.228C15.3993 10.372 15.4893 10.522 15.5733 10.678C15.8133 11.134 16.0113 11.284 16.1673 11.128C16.2273 11.068 16.2633 10.99 16.2753 10.894C16.2993 10.762 16.3653 10.594 16.4733 10.39C16.5813 10.186 16.7193 9.94 16.8873 9.652C17.0193 9.436 17.0973 9.256 17.1213 9.112C17.1573 8.68 17.4213 8.2 17.9133 7.672C18.1293 7.432 18.3033 7.234 18.4353 7.078C18.5793 6.91 18.6813 6.784 18.7413 6.7C18.8493 6.556 18.9753 6.454 19.1193 6.394C19.2633 6.334 19.4073 6.316 19.5513 6.34C19.6953 6.364 19.8273 6.43 19.9473 6.538C20.0673 6.634 20.1573 6.772 20.2173 6.952C20.2893 7.18 20.2653 7.414 20.1453 7.654C20.0253 7.918 19.7553 8.266 19.3353 8.698C19.1433 8.89 19.0113 9.034 18.9393 9.13C18.8793 9.226 18.8433 9.328 18.8313 9.436C18.7833 9.796 18.6093 10.21 18.3093 10.678C18.2253 10.81 18.1593 10.918 18.1113 11.002C18.0633 11.086 18.0213 11.17 17.9853 11.254C17.9493 11.326 17.9193 11.41 17.8953 11.506C17.8833 11.59 17.8593 11.698 17.8233 11.83C17.7513 12.25 17.6193 12.64 17.4273 13C17.2473 13.348 17.0553 13.576 16.8513 13.684ZM25.9736 13.792C25.3376 13.804 24.8096 13.78 24.3896 13.72C23.9816 13.672 23.6516 13.576 23.3996 13.432C23.1476 13.3 22.9736 13.114 22.8776 12.874C22.7816 12.622 22.7336 12.316 22.7336 11.956C22.7336 11.524 22.7036 11.308 22.6436 11.308C22.6196 11.308 22.5716 11.326 22.4996 11.362C22.3436 11.446 22.1576 11.452 21.9416 11.38C21.7256 11.296 21.5696 11.164 21.4736 10.984C21.3296 10.72 21.3116 10.438 21.4196 10.138C21.5276 9.826 21.7316 9.592 22.0316 9.436C22.1876 9.352 22.2116 9.088 22.1036 8.644C22.0676 8.464 22.1036 8.236 22.2116 7.96C22.3196 7.684 22.4696 7.414 22.6616 7.15C22.8656 6.886 23.0876 6.652 23.3276 6.448C23.5796 6.244 23.8136 6.112 24.0296 6.052C24.6536 5.896 25.4516 6.034 26.4236 6.466C26.7236 6.61 26.9576 6.7 27.1256 6.736C27.2696 6.772 27.4316 6.838 27.6116 6.934C27.8036 7.03 27.9836 7.15 28.1516 7.294C28.3316 7.426 28.4876 7.57 28.6196 7.726C28.7636 7.87 28.8656 8.002 28.9256 8.122C29.1416 8.602 28.9496 9.196 28.3496 9.904C28.2176 10.036 28.1276 10.162 28.0796 10.282C27.9236 10.63 27.6956 10.84 27.3956 10.912C27.1076 10.984 26.7656 10.918 26.3696 10.714C26.2616 10.654 26.1716 10.612 26.0996 10.588C26.0396 10.552 25.9796 10.528 25.9196 10.516C25.8596 10.492 25.7816 10.48 25.6856 10.48C25.6016 10.48 25.4816 10.48 25.3256 10.48C25.0856 10.48 24.9056 10.486 24.7856 10.498C24.6656 10.498 24.5816 10.522 24.5336 10.57C24.4856 10.606 24.4616 10.678 24.4616 10.786C24.4616 10.894 24.4616 11.044 24.4616 11.236V11.65C24.4616 11.782 24.4916 11.896 24.5516 11.992C24.6116 12.088 24.6896 12.136 24.7856 12.136C24.9416 12.136 25.0436 12.142 25.0916 12.154C25.1516 12.154 25.1996 12.16 25.2356 12.172C25.2716 12.172 25.3196 12.172 25.3796 12.172C25.4516 12.172 25.5776 12.166 25.7576 12.154H26.0096C26.7416 12.142 27.2096 12.178 27.4136 12.262C27.6056 12.346 27.7016 12.568 27.7016 12.928C27.7016 13.276 27.5936 13.504 27.3776 13.612C27.1736 13.708 26.7056 13.768 25.9736 13.792ZM26.5676 8.95C26.8076 9.046 26.9696 8.98 27.0536 8.752C27.0896 8.68 27.0656 8.602 26.9816 8.518C26.9096 8.422 26.8136 8.362 26.6936 8.338C26.5136 8.302 26.1896 8.182 25.7216 7.978C25.5896 7.918 25.4756 7.87 25.3796 7.834C25.2836 7.786 25.1936 7.75 25.1096 7.726C24.8696 7.654 24.6776 7.648 24.5336 7.708C24.3896 7.768 24.2276 7.924 24.0476 8.176C23.6276 8.716 23.7896 8.95 24.5336 8.878C24.7136 8.866 24.9056 8.854 25.1096 8.842C25.3256 8.83 25.5296 8.83 25.7216 8.842C25.9136 8.842 26.0816 8.854 26.2256 8.878C26.3816 8.89 26.4956 8.914 26.5676 8.95ZM31.7935 13.702C31.5175 13.57 31.3495 13.36 31.2895 13.072C31.2415 12.784 31.3075 12.442 31.4875 12.046C31.5355 11.938 31.5715 11.854 31.5955 11.794C31.6195 11.734 31.6195 11.674 31.5955 11.614C31.5835 11.542 31.5475 11.47 31.4875 11.398C31.4395 11.314 31.3615 11.2 31.2535 11.056C31.0975 10.84 30.9775 10.672 30.8935 10.552C30.8095 10.42 30.7495 10.282 30.7135 10.138C30.6775 9.982 30.6535 9.784 30.6415 9.544C30.6415 9.304 30.6415 8.956 30.6415 8.5C30.6295 7.972 30.6115 7.552 30.5875 7.24C30.5635 6.916 30.5395 6.688 30.5155 6.556C30.4915 6.424 30.4735 6.298 30.4615 6.178C30.4615 6.046 30.4675 5.914 30.4795 5.782C30.5035 5.65 30.5395 5.47 30.5875 5.242C30.6355 5.014 30.7015 4.744 30.7855 4.432C30.8215 4.264 30.8455 4.12 30.8575 4C30.8815 3.88 30.8995 3.778 30.9115 3.694C30.9115 3.61 30.9055 3.46 30.8935 3.244C30.8815 3.016 30.8635 2.728 30.8395 2.38C30.8155 2.08 30.8575 1.822 30.9655 1.606C31.0735 1.378 31.2295 1.228 31.4335 1.156C31.7695 1.024 32.0635 1.096 32.3155 1.372C32.5795 1.648 32.7175 2.026 32.7295 2.506C32.7295 2.662 32.7295 2.806 32.7295 2.938C32.7415 3.07 32.7535 3.196 32.7655 3.316C32.8015 3.568 32.6995 4.156 32.4595 5.08C32.3275 5.68 32.3035 6.166 32.3875 6.538C32.4355 6.718 32.4595 7.27 32.4595 8.194C32.4595 8.986 32.4775 9.454 32.5135 9.598C32.5255 9.73 32.6575 9.946 32.9095 10.246C33.0775 10.462 33.2035 10.666 33.2875 10.858C33.3835 11.038 33.4375 11.224 33.4495 11.416C33.4615 11.596 33.4375 11.8 33.3775 12.028C33.3175 12.256 33.2155 12.526 33.0715 12.838C32.8795 13.27 32.6875 13.552 32.4955 13.684C32.3035 13.828 32.0695 13.834 31.7935 13.702ZM42.8437 13.792C42.5437 13.792 42.1117 13.66 41.5477 13.396C41.4157 13.336 41.2657 13.246 41.0977 13.126C40.9297 13.006 40.7437 12.862 40.5397 12.694C40.2517 12.454 40.0657 12.19 39.9817 11.902C39.9097 11.614 39.9157 11.206 39.9997 10.678C40.0357 10.486 40.0537 10.108 40.0537 9.544C40.0537 9.304 40.0537 9.106 40.0537 8.95C40.0657 8.794 40.0777 8.674 40.0897 8.59C40.1017 8.434 40.1557 8.29 40.2517 8.158C40.3717 7.99 40.5217 7.882 40.7017 7.834C40.8937 7.786 41.0677 7.792 41.2237 7.852C41.3917 7.9 41.5297 7.996 41.6377 8.14C41.7457 8.272 41.7877 8.434 41.7637 8.626L41.6917 9.796C41.6797 10.132 41.6677 10.408 41.6557 10.624C41.6437 10.84 41.6317 11.002 41.6197 11.11C41.5957 11.326 41.6197 11.482 41.6917 11.578C41.7757 11.674 41.9677 11.8 42.2677 11.956C42.6397 12.136 42.9037 12.166 43.0597 12.046C43.1677 11.986 43.2337 11.95 43.2577 11.938C43.3057 11.926 43.3417 11.89 43.3657 11.83C43.3777 11.806 43.3897 11.776 43.4017 11.74C43.4137 11.704 43.4317 11.656 43.4557 11.596C43.5157 11.476 43.5637 11.356 43.5997 11.236C43.6477 11.104 43.6837 10.972 43.7077 10.84C43.7317 10.708 43.7497 10.528 43.7617 10.3C43.7737 10.072 43.7857 9.802 43.7977 9.49C43.8097 9.142 43.8217 8.872 43.8337 8.68C43.8457 8.488 43.8577 8.368 43.8697 8.32C43.9177 8.14 44.0617 7.912 44.3017 7.636C44.5417 7.36 44.7997 7.126 45.0757 6.934C45.1597 6.874 45.2317 6.814 45.2917 6.754C45.3637 6.682 45.4237 6.616 45.4717 6.556C45.5557 6.424 45.6577 6.328 45.7777 6.268C45.9697 6.16 46.1497 6.13 46.3177 6.178C46.4977 6.226 46.6417 6.328 46.7497 6.484C46.8697 6.628 46.9477 6.814 46.9837 7.042C47.0317 7.27 47.0197 7.51 46.9477 7.762C46.9117 7.894 46.8937 8.35 46.8937 9.13C46.8937 9.934 46.9117 10.36 46.9477 10.408C47.0677 10.636 47.1397 11.08 47.1637 11.74C47.1637 11.812 47.1637 11.896 47.1637 11.992C47.1637 12.088 47.1697 12.202 47.1817 12.334V12.802C47.2057 13.33 46.9597 13.594 46.4437 13.594C45.8557 13.594 45.5377 13.084 45.4897 12.064C45.4777 11.608 45.4537 11.362 45.4177 11.326C45.3817 11.302 45.3337 11.368 45.2737 11.524L44.8057 12.658C44.7097 12.886 44.4277 13.126 43.9597 13.378C43.5037 13.654 43.1317 13.792 42.8437 13.792ZM49.5017 18.652C49.1417 18.328 49.0577 17.77 49.2497 16.978C49.3457 16.57 49.3517 16.198 49.2677 15.862C49.1837 15.418 49.1837 14.992 49.2677 14.584C49.3277 14.368 49.3397 14.14 49.3037 13.9C49.2677 13.564 49.2377 13.156 49.2137 12.676C49.2017 12.196 49.1897 11.71 49.1777 11.218C49.1777 10.726 49.1837 10.258 49.1957 9.814C49.2197 9.358 49.2497 8.986 49.2857 8.698C49.2977 8.566 49.2857 8.482 49.2497 8.446C49.2257 8.398 49.1657 8.374 49.0697 8.374C48.9017 8.374 48.7517 8.314 48.6197 8.194C48.4997 8.074 48.4037 7.924 48.3317 7.744C48.2717 7.564 48.2417 7.378 48.2417 7.186C48.2537 6.994 48.3137 6.826 48.4217 6.682C48.5417 6.526 48.6737 6.424 48.8177 6.376C48.9017 6.352 49.0157 6.322 49.1597 6.286C49.3037 6.25 49.4897 6.214 49.7177 6.178C49.9097 6.142 50.1257 6.13 50.3657 6.142C50.6177 6.154 50.8637 6.184 51.1037 6.232C51.3437 6.268 51.5777 6.322 51.8057 6.394C52.0337 6.466 52.2377 6.544 52.4177 6.628C52.4657 6.664 52.5317 6.718 52.6157 6.79C52.7117 6.862 52.8017 6.946 52.8857 7.042C52.9817 7.138 53.0717 7.234 53.1557 7.33C53.2397 7.426 53.2997 7.51 53.3357 7.582C53.4317 7.726 53.5097 7.846 53.5697 7.942C53.6297 8.026 53.6837 8.098 53.7317 8.158C53.7917 8.218 53.8457 8.272 53.8937 8.32C53.9417 8.356 54.0017 8.398 54.0737 8.446C54.3737 8.614 54.5837 8.794 54.7037 8.986C54.8237 9.178 54.8957 9.436 54.9197 9.76C54.9437 10.048 54.9677 10.216 54.9917 10.264C55.1117 10.396 55.1957 10.624 55.2437 10.948C55.2557 11.02 55.2377 11.14 55.1897 11.308C55.1417 11.464 55.0757 11.632 54.9917 11.812C54.9197 11.98 54.8357 12.142 54.7397 12.298C54.6557 12.442 54.5777 12.55 54.5057 12.622L53.0477 13.702C53.0237 13.714 52.9937 13.732 52.9577 13.756C52.9337 13.78 52.9037 13.804 52.8677 13.828C52.6037 13.984 52.2317 14.062 51.7517 14.062C51.5837 14.062 51.4517 14.062 51.3557 14.062C51.2717 14.074 51.2057 14.092 51.1577 14.116C51.1097 14.14 51.0737 14.182 51.0497 14.242C51.0377 14.314 51.0257 14.41 51.0137 14.53C50.9177 14.95 50.9177 15.412 51.0137 15.916C51.0857 16.348 51.0617 16.768 50.9417 17.176C50.9297 17.212 50.9177 17.278 50.9057 17.374C50.8937 17.47 50.8757 17.602 50.8517 17.77C50.7917 18.274 50.6297 18.61 50.3657 18.778C50.1017 18.958 49.8137 18.916 49.5017 18.652ZM52.6337 11.866C53.0657 11.566 53.3117 11.362 53.3717 11.254C53.4317 11.146 53.4197 10.966 53.3357 10.714C53.2637 10.534 53.2277 10.384 53.2277 10.264C53.2277 10.048 53.1497 9.898 52.9937 9.814C52.8857 9.754 52.7477 9.634 52.5797 9.454C52.4117 9.274 52.2917 9.112 52.2197 8.968C52.0037 8.536 51.8057 8.284 51.6257 8.212C51.2417 8.056 51.1157 8.152 51.2477 8.5C51.3797 8.812 51.3437 9.094 51.1397 9.346C51.1157 9.382 51.0857 9.424 51.0497 9.472C51.0137 9.508 50.9837 9.556 50.9597 9.616C50.9357 9.652 50.9177 9.802 50.9057 10.066C50.8937 10.318 50.8817 10.6 50.8697 10.912C50.8697 11.212 50.8697 11.494 50.8697 11.758C50.8817 12.01 50.8937 12.148 50.9057 12.172C50.9177 12.208 51.1277 12.226 51.5357 12.226H52.1297L52.6337 11.866ZM58.4701 9.436C58.2541 9.676 58.0081 9.772 57.7321 9.724C57.4561 9.664 57.1201 9.448 56.7241 9.076C56.4361 8.812 56.3041 8.458 56.3281 8.014C56.3521 7.57 56.5201 7.126 56.8321 6.682C56.9401 6.526 56.9941 6.358 56.9941 6.178C56.9941 5.998 56.9401 5.746 56.8321 5.422C56.7601 5.218 56.7001 5.044 56.6521 4.9C56.6161 4.744 56.5921 4.594 56.5801 4.45C56.5681 4.306 56.5681 4.162 56.5801 4.018C56.5921 3.862 56.6161 3.688 56.6521 3.496C56.6881 3.244 56.6821 3.016 56.6341 2.812C56.5621 2.416 56.5861 2.068 56.7061 1.768C56.8261 1.468 57.0241 1.288 57.3001 1.228C57.5401 1.168 57.7621 1.192 57.9661 1.3C58.1701 1.396 58.3081 1.546 58.3801 1.75C58.4041 1.822 58.4221 1.942 58.4341 2.11C58.4581 2.278 58.4701 2.464 58.4701 2.668C58.4821 2.872 58.4821 3.082 58.4701 3.298C58.4701 3.502 58.4641 3.688 58.4521 3.856C58.4281 3.988 58.4101 4.096 58.3981 4.18C58.3981 4.252 58.3981 4.318 58.3981 4.378C58.4101 4.426 58.4221 4.474 58.4341 4.522C58.4461 4.558 58.4641 4.612 58.4881 4.684C58.9681 5.92 58.9561 6.856 58.4521 7.492C58.3321 7.672 58.2601 7.792 58.2361 7.852C58.2241 7.912 58.2661 7.984 58.3621 8.068C58.4461 8.128 58.5121 8.218 58.5601 8.338C58.6201 8.446 58.6561 8.572 58.6681 8.716C58.6801 8.848 58.6681 8.98 58.6321 9.112C58.5961 9.244 58.5421 9.352 58.4701 9.436ZM58.9201 13.756C58.7881 13.852 58.6381 13.9 58.4701 13.9C58.3141 13.912 58.1641 13.888 58.0201 13.828C57.8761 13.768 57.7441 13.672 57.6241 13.54C57.5161 13.42 57.4441 13.27 57.4081 13.09C57.3841 12.922 57.3121 12.748 57.1921 12.568C56.9761 12.208 56.9281 11.872 57.0481 11.56C57.1801 11.236 57.4381 11.026 57.8221 10.93C58.0021 10.882 58.2121 10.9 58.4521 10.984C58.7041 11.068 58.8901 11.188 59.0101 11.344C59.0581 11.416 59.0941 11.488 59.1181 11.56L59.1721 12.118L59.2261 12.928C59.2861 13.312 59.1841 13.588 58.9201 13.756Z" fill="#F1494A"/>
</svg>
